<svg width="54" height="45" fill="none" xmlns="http://www.w3.org/2000/svg"><path fill-rule="evenodd" clip-rule="evenodd" d="M18.804 3.802c.407-.686 1.093-1.192 1.976-1.553.883-.36 1.912-.555 2.915-.647a18.716 18.716 0 0 1 3.735.05h.012l.003.001a.766.766 0 0 0 .203-1.519l-.1.756.1-.756h-.008L27.621.13a7.956 7.956 0 0 0-.318-.035 20.24 20.24 0 0 0-3.747-.02c-1.088.1-2.28.316-3.355.755-1.074.44-2.082 1.124-2.713 2.189-.32.538-.61 1.404-.88 2.422-.277 1.043-.554 2.325-.825 3.75-.501 2.64-.989 5.806-1.422 8.915-.303-.02-.608-.03-.916-.03C6.02 18.077 0 24.104 0 31.538 0 38.973 6.02 45 13.445 45c7.426 0 13.446-6.027 13.446-13.462 0-6.602-4.748-12.094-11.011-13.241.307-2.206.641-4.432.987-6.47a38.295 38.295 0 0 1 .842.368c.94.424 2.274 1.064 3.838 1.928 3.133 1.73 7.17 4.347 10.823 7.896 2.659 2.584 4.981 5.213 6.863 7.517a8.848 8.848 0 0 0-2.941 6.599c0 4.896 3.964 8.865 8.854 8.865C50.036 45 54 41.031 54 36.135c0-4.896-3.964-8.865-8.854-8.865-1.722 0-3.33.492-4.69 1.344a92.683 92.683 0 0 0-5.894-6.578l5.135-5.82h4.684a.766.766 0 0 0 0-1.532H32.794a.766.766 0 0 0 0 1.532h4.861l-4.182 4.74-.037-.036c-3.78-3.674-7.941-6.366-11.15-8.138a54.795 54.795 0 0 0-3.95-1.984 38.219 38.219 0 0 0-1.198-.518c.05-.272.099-.54.149-.802.267-1.407.536-2.65.8-3.642.27-1.016.517-1.696.717-2.034ZM14.152 19.63c-.234-.014-.47-.021-.707-.021-6.58 0-11.915 5.34-11.915 11.93 0 6.588 5.335 11.929 11.915 11.929 6.58 0 11.915-5.341 11.915-11.93 0-5.826-4.172-10.678-9.689-11.721a458.237 458.237 0 0 0-1.435 11.85l-.011.109-.011.1-.006.053-.001.014v.003l-.762-.08-.76-.08v-.004l.001-.014.006-.054.022-.21a366.87 366.87 0 0 1 .414-3.68c.257-2.21.611-5.13 1.024-8.195Zm-.707 12.237.761.08a.766.766 0 1 1-1.522-.16l.761.08Zm27.759.164a97.83 97.83 0 0 0-1.01-1.3 7.317 7.317 0 0 0-2.372 5.404c0 4.05 3.279 7.333 7.324 7.333s7.324-3.283 7.324-7.333c0-4.05-3.28-7.333-7.324-7.333-1.36 0-2.632.37-3.722 1.016.351.445.683.873.996 1.282a89.401 89.401 0 0 1 2.487 3.416 59.353 59.353 0 0 1 .825 1.224l.026.042.017.026.011.018.004.005s0 .002-.644.413l.645-.412a.765.765 0 1 1-1.29.825v-.001l-.003-.004-.01-.015a13.666 13.666 0 0 0-.201-.308 58.128 58.128 0 0 0-.638-.942 87.933 87.933 0 0 0-2.445-3.356Z" fill="#42B026"/></svg>