<svg width="127" height="22" fill="none" xmlns="http://www.w3.org/2000/svg"><path d="M16.528 10.892c4.256 0 6.384 1.353 6.384 4.06 0 1.27-.29 2.352-.868 3.248-.579.877-1.615 1.568-3.108 2.072-1.493.485-3.565.728-6.216.728H.12c.15-3.621.224-7.01.224-10.164C.344 7.68.269 4.293.12.672H6.7V.7h5.964c2.315 0 4.135.196 5.46.588 1.344.373 2.287.924 2.828 1.652.56.728.84 1.652.84 2.772 0 1.139-.401 2.156-1.204 3.052-.784.877-2.137 1.587-4.06 2.128ZM6.7 5.796V8.4h5.376c1.157 0 1.96-.103 2.408-.308.467-.205.7-.579.7-1.12 0-.43-.243-.728-.728-.896-.467-.187-1.26-.28-2.38-.28H6.7Zm5.376 10.08c.97 0 1.708-.037 2.212-.112.523-.093.896-.243 1.12-.448.224-.224.336-.523.336-.896 0-.485-.27-.83-.812-1.036-.523-.224-1.475-.336-2.856-.336H6.7v2.828h5.376ZM32.307 15.876c7.094-.037 12.236-.14 15.428-.308-.13.765-.214 1.559-.252 2.38-.018.803-.027 1.82-.027 3.052H25.698c.15-3.621.224-7.01.224-10.164 0-3.155-.074-6.543-.223-10.164h21.756V5.74H32.306v2.688a261.374 261.374 0 0 0 13.188-.14v4.816a261.374 261.374 0 0 0-13.188-.14v2.912ZM73.64 21h-7.083V6.16h-6.272l-.028 1.624c0 1.419-.038 2.67-.112 3.752a25.647 25.647 0 0 1-.392 3.276c-.374 2.035-1.326 3.668-2.856 4.9-1.512 1.232-3.63 1.848-6.356 1.848V16.1c.728-.15 1.297-.476 1.708-.98.43-.523.756-1.353.98-2.492.168-.915.252-2.996.252-6.244L53.453.672 73.64.7V21ZM83.308.7l-.476 15.708L89.637.7H99.94c-.13 3.155-.195 6.533-.195 10.136 0 3.621.065 7.01.195 10.164h-7.195l.504-15.288L86.473 21H76.447c.15-3.621.225-7.01.225-10.164 0-3.136-.075-6.515-.225-10.136h6.86ZM120.771 11.284c1.101.896 1.941 1.895 2.52 2.996.597 1.083 1.176 2.417 1.736 4.004.467 1.288.84 2.193 1.12 2.716h-8.232c-.112-.317-.261-.868-.448-1.652-.187-.859-.392-1.577-.616-2.156a4.387 4.387 0 0 0-.896-1.512c-.635-.672-1.428-1.101-2.38-1.288-.933-.205-2.221-.308-3.864-.308V21h-6.972c.149-3.621.224-7.01.224-10.164 0-3.155-.075-6.543-.224-10.164h6.972V7.98c.187.019.467.028.84.028 2.912-2.875 5.077-5.32 6.496-7.336h9.072l-8.708 8.68a13.018 13.018 0 0 1 3.36 1.932Z" fill="#FF833E"/></svg>